# xmcd
#
# Track frame offsets: 
#        150
#        13961
#        26593
#        39450
#        52551
#        65661
#        78846
#        89867
#        102651
#        114078
#        127093
#        139692
#        152845
#        167289
#        179594
#        192162
#        205680
#        218753
#        230642
#        245118
#        260077
#        273289
#        283916
#        296560
#        307387
#
# Disc length: 4290 seconds
#
# Revision: 0
# Processed by: cddbd v1.5.1PL2 Copyright (c) Steve Scherf et al.
# Submitted via: ExactAudioCopy v0.95b4
#
DISCID=7c10c019
DTITLE=Red Foley - Hillbilly Fever [CD3)
DYEAR=1900
DGENRE=
TTITLE0=Birmingham Bounce
TTITLE1=Chattanooga Shoe Shine Boy
TTITLE2=Hillbilly Fever #2
TTITLE3=Just A Closer Walk With Thee
TTITLE4=Love Bug Itch
TTITLE5=Somebody's Cryin'
TTITLE6=Sugarfoot Rag
TTITLE7=Cincinnati Dancin' Pig
TTITLE8=M-I-S-S-I-S-S-I-P-P-I
TTITLE9=Old Kentucky Fox Chase
TTITLE10=Texas vs Kentucky
TTITLE11=Sugarfoot Rag Square Dance
TTITLE12=The Strange Little Girl
TTITLE13=Tater Pie
TTITLE14=Alabama Jubilee
TTITLE15=Hobo Boogie
TTITLE16=I Want To Be With You Always
TTITLE17=Hot Rod Race
TTITLE18=(There'll Be) Peace In The Valley
TTITLE19=My Heart Cries For You
TTITLE20=Night Train To Memphis
TTITLE21=Dixie
TTITLE22=Milk Bucket Boogie
TTITLE23=I Gotta Have You
TTITLE24=Midnight
EXTD=
EXTT0=
EXTT1=
EXTT2=
EXTT3=
EXTT4=
EXTT5=
EXTT6=
EXTT7=
EXTT8=
EXTT9=
EXTT10=
EXTT11=
EXTT12=
EXTT13=
EXTT14=
EXTT15=
EXTT16=
EXTT17=
EXTT18=
EXTT19=
EXTT20=
EXTT21=
EXTT22=
EXTT23=
EXTT24=
PLAYORDER=
